Coordinates
version=1
nRows=16
nColumns=40
inDegrees=yes

Units are S.I. units (second, meters, Newtons, ...)
If the header above contains a line with 'inDegrees', this indicates whether rotational values are in degrees (yes) or radians (no).

endheader
time	pelvis_tilt	pelvis_list	pelvis_rotation	pelvis_tx	pelvis_ty	pelvis_tz	hip_flexion_r	hip_adduction_r	hip_rotation_r	knee_angle_r	knee_angle_r_beta	ankle_angle_r	subtalar_angle_r	mtp_angle_r	hip_flexion_l	hip_adduction_l	hip_rotation_l	knee_angle_l	knee_angle_l_beta	ankle_angle_l	subtalar_angle_l	mtp_angle_l	lumbar_extension	lumbar_bending	lumbar_rotation	arm_flex_r	arm_add_r	arm_rot_r	elbow_flex_r	pro_sup_r	wrist_flex_r	wrist_dev_r	arm_flex_l	arm_add_l	arm_rot_l	elbow_flex_l	pro_sup_l	wrist_flex_l	wrist_dev_l
      0.61500000	      0.75788191	     -1.81940249	     -7.17143489	      0.23926261	      0.90200975	      0.22367942	    -20.21565436	     -3.89677855	    -15.78612924	     14.60225194	      0.25485737	      5.08896583	     14.24704928	      0.00000000	     24.88794360	     -8.78082189	    -26.33305799	     10.42282600	      0.18191263	     -3.92134258	     10.52439958	      0.00000000	     -2.89904274	     -0.96018651	      0.45831019	     44.07849979	    -15.88582368	     44.07849979	     75.16406330	     44.98426971	      0.00000000	      0.00000000	     44.07849979	    -15.88582368	     44.07849979	     75.16406330	     44.98426971	      0.00000000	      0.00000000
      0.62000000	      0.93104513	     -1.49803135	     -7.19563771	      0.24698783	      0.90225877	      0.22279859	    -20.54575345	     -4.43333990	    -15.61227881	     15.00171755	      0.26182936	      3.99492818	     13.88811407	      0.00000000	     24.72170680	     -8.51122343	    -26.33039701	     11.34577613	      0.19802115	     -4.33033384	      9.62880826	      0.00000000	     -2.99365476	     -1.36137823	      0.76422208	     44.07913553	    -15.88481365	     44.07913553	     75.16369730	     44.98436709	      0.00000000	      0.00000000	     44.07913553	    -15.88481365	     44.07913553	     75.16369730	     44.98436709	      0.00000000	      0.00000000
      0.62500000	      1.22040380	     -0.92571778	     -7.46817397	      0.25466368	      0.90290786	      0.22263158	    -20.90348124	     -5.25810711	    -15.16074828	     15.43818838	      0.26944722	      2.78573499	     12.75040376	      0.00000000	     24.21900012	     -8.02851360	    -26.52012829	     11.91873733	      0.20802121	     -5.01494016	      8.80883108	      0.00000000	     -3.19679220	     -1.95593690	      1.67856642	     44.08431276	    -15.87660520	     44.08431276	     75.16073786	     44.98514006	      0.00000000	      0.00000000	     44.08431276	    -15.87660520	     44.08431276	     75.16073786	     44.98514006	      0.00000000	      0.00000000
      0.63000000	      1.33513719	     -0.66439123	     -7.40644493	      0.26235195	      0.90323781	      0.22152516	    -21.14989824	     -5.67728225	    -14.81956567	     15.86996960	      0.27698322	      1.92309943	     12.54081441	      0.00000000	     24.05292610	     -7.77667442	    -26.16419301	     12.74204254	      0.22239060	     -5.26261256	      8.36604140	      0.00000000	     -3.31120237	     -2.28257606	      1.86266039	     44.08458282	    -15.87617792	     44.08458282	     75.16058455	     44.98517943	      0.00000000	      0.00000000	     44.08458282	    -15.87617792	     44.08458282	     75.16058455	     44.98517943	      0.00000000	      0.00000000
      0.63500000	      1.49578238	     -0.27985525	     -7.45945406	      0.27019160	      0.90370438	      0.22075017	    -21.26337787	     -6.31110255	    -14.89843910	     16.54949166	      0.28884312	      0.19794445	     11.53036486	      0.00000000	     23.96585635	     -7.51133033	    -26.40462469	     13.85605478	      0.24183378	     -5.73751621	      7.28395694	      0.00000000	     -3.28711220	     -2.78699340	      2.16005573	     44.08517671	    -15.87523844	     44.08517671	     75.16024767	     44.98526572	      0.00000000	      0.00000000	     44.08517671	    -15.87523844	     44.08517671	     75.16024767	     44.98526572	      0.00000000	      0.00000000
      0.64000000	      1.59334222	      0.11794294	     -7.45999354	      0.27792535	      0.90416971	      0.21982447	    -21.26061519	     -6.90565644	    -14.75526117	     17.31125566	      0.30213841	     -1.32764063	     10.31761866	      0.00000000	     23.85028036	     -7.17787143	    -26.41400671	     14.74498392	      0.25734852	     -6.13984069	      6.65075007	      0.00000000	     -3.26264080	     -3.25853639	      2.45354546	     44.08594868	    -15.87401783	     44.08594868	     75.15981048	     44.98537723	      0.00000000	      0.00000000	     44.08594868	    -15.87401783	     44.08594868	     75.15981048	     44.98537723	      0.00000000	      0.00000000
      0.64500000	      1.73628540	      0.42156753	     -7.42869144	      0.28571046	      0.90478714	      0.21886057	    -21.35163203	     -7.38246589	    -14.54574559	     17.99325609	      0.31404156	     -2.64066275	      9.49406401	      0.00000000	     23.63417437	     -6.89873135	    -26.20995704	     15.57986341	      0.27191991	     -6.32763733	      6.12650532	      0.00000000	     -3.30592098	     -3.66586287	      2.69918308	     44.08645290	    -15.87322098	     44.08645290	     75.15952541	     44.98544964	      0.00000000	      0.00000000	     44.08645290	    -15.87322098	     44.08645290	     75.15952541	     44.98544964	      0.00000000	      0.00000000
      0.65000000	      1.80538922	      0.80854241	     -7.37716418	      0.29345586	      0.90536799	      0.21780991	    -21.17346486	     -7.95898783	    -14.50670259	     18.98417606	      0.33133638	     -4.52031951	      7.89339869	      0.00000000	     23.53205628	     -6.54721110	    -26.25308478	     16.41362095	      0.28647173	     -6.70097887	      5.53326992	      0.00000000	     -3.24779470	     -4.08638877	      2.97465044	     44.08737392	    -15.87176606	     44.08737392	     75.15900550	     44.98558113	      0.00000000	      0.00000000	     44.08737392	    -15.87176606	     44.08737392	     75.15900550	     44.98558113	      0.00000000	      0.00000000
      0.65500000	      1.89046837	      1.13239831	     -7.32407165	      0.30118909	      0.90601639	      0.21684940	    -20.99312613	     -8.44829875	    -14.37828226	     20.00799760	      0.34920543	     -6.21963606	      6.35472273	      0.00000000	     23.35221114	     -6.22637155	    -26.04787313	     17.17783849	      0.29980984	     -6.85603727	      5.03227696	      0.00000000	     -3.20686120	     -4.49825477	      3.24646999	     44.08860714	    -15.86981957	     44.08860714	     75.15831131	     44.98575544	      0.00000000	      0.00000000	     44.08860714	    -15.86981957	     44.08860714	     75.15831131	     44.98575544	      0.00000000	      0.00000000
      0.66000000	      1.97402637	      1.41904824	     -7.19927290	      0.30889641	      0.90675110	      0.21560730	    -20.78355106	     -8.90959743	    -14.32300634	     21.04855528	      0.36736659	     -7.93653253	      5.08008594	      0.00000000	     23.16825249	     -5.88585635	    -25.82259597	     17.90192497	      0.31244753	     -6.91899587	      4.51050684	      0.00000000	     -3.21709319	     -4.79475375	      3.42331395	     44.08974342	    -15.86802756	     44.08974342	     75.15767350	     44.98591442	      0.00000000	      0.00000000	     44.08974342	    -15.86802756	     44.08974342	     75.15767350	     44.98591442	      0.00000000	      0.00000000
      0.66500000	      2.04153709	      1.70142608	     -7.04114220	      0.31661148	      0.90744998	      0.21426456	    -20.46810031	     -9.38672648	    -14.38418654	     22.26460839	      0.38859072	     -9.75763663	      3.71285328	      0.00000000	     22.98313211	     -5.51387755	    -25.54343673	     18.58096803	      0.32429907	     -6.93717778	      3.98445157	      0.00000000	     -3.18335497	     -5.09476707	      3.56214710	     44.09082974	    -15.86631568	     44.09082974	     75.15706536	     44.98606498	      0.00000000	      0.00000000	     44.09082974	    -15.86631568	     44.09082974	     75.15706536	     44.98606498	      0.00000000	      0.00000000
      0.67000000	      2.10444400	      1.96919425	     -6.87359237	      0.32425439	      0.90818499	      0.21288958	    -20.06653693	     -9.87282701	    -14.49835630	     23.60639198	      0.41200926	    -11.58203002	      2.37232367	      0.00000000	     22.76846612	     -5.12163979	    -25.25773372	     19.17699733	      0.33470174	     -6.85002470	      3.42942546	      0.00000000	     -3.16837608	     -5.35771084	      3.64104141	     44.09180800	    -15.86477528	     44.09180800	     75.15651916	     44.98619928	      0.00000000	      0.00000000	     44.09180800	    -15.86477528	     44.09180800	     75.15651916	     44.98619928	      0.00000000	      0.00000000
      0.67500000	      2.07322023	      2.34468641	     -6.70186881	      0.33189072	      0.90863244	      0.21153482	    -19.44064277	    -10.48920626	    -14.67603982	     25.20726528	      0.43994977	    -13.19213298	      0.75815339	      0.00000000	     22.62270589	     -4.58433907	    -24.87399673	     19.68655846	      0.34359526	     -6.71329235	      2.79421446	      0.00000000	     -2.99110870	     -5.78948073	      3.73113225	     44.09356883	    -15.86200534	     44.09356883	     75.15553934	     44.98643811	      0.00000000	      0.00000000	     44.09356883	    -15.86200534	     44.09356883	     75.15553934	     44.98643811	      0.00000000	      0.00000000
      0.68000000	      2.12155288	      2.64680558	     -6.51633580	      0.33945081	      0.90934987	      0.21005220	    -18.85156612	    -11.08275107	    -14.93217727	     26.83352869	      0.46833343	    -15.05302434	     -0.51965575	      0.00000000	     22.35045310	     -4.09275378	    -24.57747941	     20.12029055	      0.35116532	     -6.55079012	      2.27355219	      0.00000000	     -2.96227632	     -6.08786190	      3.76355770	     44.09474950	    -15.86014993	     44.09474950	     75.15488463	     44.98659628	      0.00000000	      0.00000000	     44.09474950	    -15.86014993	     44.09474950	     75.15488463	     44.98659628	      0.00000000	      0.00000000
      0.68500000	      2.13692460	      2.98659876	     -6.35899543	      0.34694701	      0.90996629	      0.20866196	    -18.13220809	    -11.74792014	    -15.18375687	     28.62338536	      0.49957232	    -16.76334813	     -1.92947195	      0.00000000	     22.06961171	     -3.54742197	    -24.26929560	     20.46529292	      0.35718674	     -6.31364266	      1.70464430	      0.00000000	     -2.86888221	     -6.47104270	      3.80860780	     44.09588555	    -15.85836616	     44.09588555	     75.15425650	     44.98674689	      0.00000000	      0.00000000	     44.09588555	    -15.85836616	     44.09588555	     75.15425650	     44.98674689	      0.00000000	      0.00000000
      0.69000000	      2.04976545	      3.91886147	     -6.37630172	      0.35436705	      0.90996709	      0.20757900	    -16.96288662	    -13.27980937	    -15.68422017	     31.10963965	      0.54296564	    -17.77440600	     -3.04616308	      0.00000000	     21.83380037	     -2.37770210	    -24.23080846	     20.53834700	      0.35846178	     -6.29025120	      0.80588600	      0.00000000	     -2.50842749	     -7.58888930	      4.03739076	     44.09999697	    -15.85192239	     44.09999697	     75.15199757	     44.98727977	      0.00000000	      0.00000000	     44.09999697	    -15.85192239	     44.09999697	     75.15199757	     44.98727977	      0.00000000	      0.00000000
